<svg xmlns="http://www.w3.org/2000/svg" xmlns:xlink="http://www.w3.org/1999/xlink" width="4751.80215" height="677.72908" viewBox="0 0 4751.80215 677.72908">
  <defs>
    <linearGradient id="linear-gradient" x1="321.29417" y1="185.49488" x2="321.29417" y2="771.1681" gradientUnits="userSpaceOnUse">
      <stop offset="0.21799" stop-color="#4070b7"/>
      <stop offset="1" stop-color="#3d5daa"/>
    </linearGradient>
  </defs>
  <g id="Layer_2" data-name="Layer 2">
    <g id="Layer_5" data-name="Layer 5">
      <g>
        <g>
          <polygon points="644.428 284.456 517.101 0.001 515.805 0.001 515.805 0 388.478 0 350.586 82.275 320.598 147.381 292.616 82.275 257.25 0 129.928 0 129.929 0.001 127.327 0.001 0 284.456 127.327 284.456 180.542 165.57 243.183 263.489 257.104 285.249 322.212 380.842 377.006 301.368 463.886 165.569 517.101 284.456 644.428 284.456" fill="#4f9bd5"/>
          <polygon points="464.106 331.815 319.4 506.773 178.757 338.356 32.362 338.356 319.4 677.729 610.226 331.815 464.106 331.815" fill="url(#linear-gradient)"/>
        </g>
        <g>
          <polygon points="1185.264 128.831 1141.253 319.878 1097.798 128.831 988.049 128.831 922.867 516.088 1015.905 516.088 1048.774 322.459 1150.029 522.048 1234.29 322.459 1267.715 516.088 1360.195 516.088 1295.013 128.831 1185.264 128.831" fill="#3d5daa"/>
          <rect x="1396.40017" y="128.83064" width="93.03784" height="387.25781" fill="#3d5daa"/>
          <polygon points="1794.727 380.806 1634.838 128.831 1541.8 128.831 1541.8 516.088 1634.838 516.088 1634.838 275.988 1786.927 516.088 1887.763 516.088 1887.763 128.831 1794.727 128.831 1794.727 380.806" fill="#3d5daa"/>
          <polygon points="1945.136 515.056 2204.19 515.056 2204.19 428.826 2038.172 428.826 2038.172 364.8 2172.991 364.8 2172.991 278.054 2038.172 278.054 2038.172 214.544 2204.19 214.544 2204.19 128.314 1945.136 128.314 1945.136 515.056" fill="#3d5daa"/>
          <polygon points="2425.269 322.499 2345.133 127.798 2242.625 127.798 2415.915 515.812 2613.656 127.798 2511.707 127.798 2425.269 322.499" fill="#3d5daa"/>
          <polygon points="2646.523 515.056 2905.577 515.056 2905.577 428.826 2739.56 428.826 2739.56 364.8 2874.378 364.8 2874.378 278.054 2739.56 278.054 2739.56 214.544 2905.577 214.544 2905.577 128.314 2646.523 128.314 2646.523 515.056" fill="#3d5daa"/>
          <polygon points="3214.766 380.806 3054.876 128.831 2961.839 128.831 2961.839 516.088 3054.876 516.088 3054.876 275.988 3206.966 516.088 3307.802 516.088 3307.802 128.831 3214.766 128.831 3214.766 380.806" fill="#3d5daa"/>
          <polygon points="3353.477 214.544 3473.811 214.544 3473.811 515.056 3566.849 515.056 3566.849 214.544 3686.626 214.544 3686.626 128.314 3353.477 128.314 3353.477 214.544" fill="#3d5daa"/>
          <path d="M3993.5845,352.4073q0,25.30554-12.813,42.59839a78.94621,78.94621,0,0,1-32.31091,25.81787,106.99613,106.99613,0,0,1-42.0614,8.77758,100.84331,100.84331,0,0,1-42.06153-8.2622,78.81658,78.81658,0,0,1-32.3125-25.8169q-12.82251-17.29248-12.813-43.11474V127.79768H3727.8461V352.4073q0,40.27441,15.33752,70.7395a151.82215,151.82215,0,0,0,40.73926,50.85986,181.6278,181.6278,0,0,0,57.46924,30.98071,215.06925,215.06925,0,0,0,131.67541,1.033,174.07154,174.07154,0,0,0,57.47791-30.4646,151.21329,151.21329,0,0,0,40.73059-51.1184q15.34-30.71374,15.34607-72.03V127.79768h-93.0376Z" fill="#3d5daa"/>
          <path d="M4399.71261,378.22517a148.66331,148.66331,0,0,0,31.19751-57.83081,161.353,161.353,0,0,0,4.17737-66.092,154.948,154.948,0,0,0-22.28271-61.96167q-17.54957-27.88257-48.748-45.95459-31.20438-18.067-75.20807-18.072H4140.65908V517.12141h89.69269v-92.9419H4236.48l82.45123,92.9419H4432.0234L4342.33072,415.918Q4377.42727,404.04621,4399.71261,378.22517Zm-58.21771-69.9646a57.68565,57.68565,0,0,1-19.777,24.26782q-13.37218,9.561-32.86914,9.55176h-58.49695V211.44538h58.49695q19.49433,0,32.86914,9.55274a57.727,57.727,0,0,1,19.777,24.26782,80.64089,80.64089,0,0,1,0,62.99463Z" fill="#3d5daa"/>
          <polygon points="4751.802 214.544 4751.802 128.314 4492.749 128.314 4492.749 515.056 4751.802 515.056 4751.802 428.826 4585.785 428.826 4585.785 364.8 4720.603 364.8 4720.603 278.054 4585.785 278.054 4585.785 214.544 4751.802 214.544" fill="#3d5daa"/>
        </g>
      </g>
    </g>
  </g>
</svg>
