<svg xmlns="http://www.w3.org/2000/svg" xmlns:xlink="http://www.w3.org/1999/xlink" width="3708.79524" height="1561.60922" viewBox="0 0 3708.79524 1561.60922">
  <defs>
    <linearGradient id="linear-gradient" x1="1786.78857" y1="236.93556" x2="1786.78857" y2="985.0253" gradientUnits="userSpaceOnUse">
      <stop offset="0.21799" stop-color="#4070b7"/>
      <stop offset="1" stop-color="#3d5daa"/>
    </linearGradient>
  </defs>
  <g id="Layer_2" data-name="Layer 2">
    <g id="Layer_5" data-name="Layer 5">
      <g>
        <polygon points="2198.358 363.341 2035.721 0.002 2034.065 0.002 2034.066 0 1871.428 0 1823.028 105.092 1784.725 188.252 1748.983 105.092 1703.809 0 1541.179 0 1541.18 0.002 1537.856 0.002 1375.22 363.341 1537.856 363.341 1605.829 211.485 1685.841 336.559 1703.623 364.353 1786.786 486.456 1856.776 384.943 1967.748 211.484 2035.721 363.341 2198.358 363.341" fill="#4f9bd5"/>
        <polygon points="1969.205 423.832 1784.369 647.309 1604.723 432.188 1417.731 432.188 1784.369 865.674 2155.846 423.832 1969.205 423.832" fill="url(#linear-gradient)"/>
        <path d="M360.469,1180.72968l63.13653,375.10715H334.02785l-32.377-187.554L220.034,1561.60922h0l-98.07763-193.32638-31.83785,187.554H0l63.13653-375.10715H169.44187l42.09212,185.053,42.62964-185.053Z" fill="#4f9bd5"/>
        <path d="M458.67508,1180.72968h90.11849v375.10715H458.67508Z" fill="#4f9bd5"/>
        <path d="M844.50351,1180.72968h90.11683v375.10715H836.94843L689.631,1323.27005v232.56678H599.51249V1180.72968H689.631l154.87253,244.06945Z" fill="#4f9bd5"/>
        <path d="M1241.11876,1180.22949v83.524H1080.31032v61.51735h130.58811V1409.295H1080.31032v62.01753h160.80844v83.524H990.19349v-374.607Z" fill="#4f9bd5"/>
        <path d="M1455.26125,1368.32182l83.72581-188.59252h98.75026L1446.2009,1555.569h0L1278.34836,1179.7293h99.29109Z" fill="#3d5daa"/>
        <path d="M1920.49878,1180.22949v83.524H1759.69034v61.51735h130.58811V1409.295H1759.69034v62.01753h160.80844v83.524H1669.57351v-374.607Z" fill="#3d5daa"/>
        <path d="M2219.98627,1180.72968h90.11682v375.10715h-97.67191l-147.31745-232.56678v232.56678h-90.11849V1180.72968h90.11849l154.87254,244.06945Z" fill="#3d5daa"/>
        <path d="M2677.04051,1180.22949v83.524H2561.02172v291.083h-90.11848v-291.083h-116.558v-83.524Z" fill="#3d5daa"/>
        <path d="M3064.48646,1179.7293v217.562q0,40.02-14.86463,69.77a146.46862,146.46862,0,0,1-39.45266,49.51449,168.60614,168.60614,0,0,1-55.67435,29.50861A208.32,208.32,0,0,1,2826.951,1545.084a175.9303,175.9303,0,0,1-55.66606-30.00881,147.05557,147.05557,0,0,1-39.461-49.264q-14.85882-29.50488-14.85633-68.52v-217.562h88.4993v217.562q0,25.01562,12.411,41.762a76.34436,76.34436,0,0,0,31.29868,25.00692,97.68005,97.68005,0,0,0,40.7417,8.003,103.64171,103.64171,0,0,0,40.7417-8.50237,76.46594,76.46594,0,0,0,31.297-25.00775q12.40766-16.75008,12.411-41.26179v-217.562Z" fill="#3d5daa"/>
        <path d="M3116.82788,1556.8372V1180.22949H3260.3678q42.62052,0,72.84831,17.50493,30.21534,17.5128,47.21843,44.5126a150.08682,150.08682,0,0,1,21.58357,60.01761,156.29193,156.29193,0,0,1-4.04629,64.01828,143.99735,143.99735,0,0,1-30.21867,56.01611q-21.59022,25.01439-55.58145,36.51042l86.87847,98.02776H3289.50646l-79.86422-90.02558h-5.9359v90.02558Zm86.87846-296.08488v126.536h56.66146q18.88272,0,31.83785-9.25224a55.87537,55.87537,0,0,0,19.15646-23.50636,78.11035,78.11035,0,0,0,0-61.018,55.91567,55.91567,0,0,0-19.15646-23.50636q-12.95263-9.24851-31.83785-9.25307Z" fill="#3d5daa"/>
        <path d="M3708.79524,1180.22949v83.524H3547.98681v61.51735h130.58811V1409.295H3547.98681v62.01753h160.80843v83.524H3457.87v-374.607Z" fill="#3d5daa"/>
      </g>
    </g>
  </g>
</svg>
