<svg xmlns="http://www.w3.org/2000/svg" width="3828.93469" height="394.25024" viewBox="0 0 3828.93469 394.25024">
  <g id="Layer_2" data-name="Layer 2">
    <g id="Layer_5" data-name="Layer 5">
      <g>
        <polygon points="262.396 1.033 218.386 192.08 174.931 1.033 65.182 1.033 0 388.291 93.038 388.291 125.907 194.661 227.161 394.25 311.422 194.661 344.848 388.291 437.327 388.291 372.146 1.033 262.396 1.033" fill="#3d5daa"/>
        <rect x="473.53271" y="1.03296" width="93.03784" height="387.25781" fill="#3d5daa"/>
        <polygon points="871.859 253.009 711.97 1.033 618.932 1.033 618.932 388.291 711.97 388.291 711.97 148.191 864.06 388.291 964.896 388.291 964.896 1.033 871.859 1.033 871.859 253.009" fill="#3d5daa"/>
        <polygon points="1022.269 387.258 1281.322 387.258 1281.322 301.029 1115.305 301.029 1115.305 237.002 1250.123 237.002 1250.123 150.256 1115.305 150.256 1115.305 86.746 1281.322 86.746 1281.322 0.516 1022.269 0.516 1022.269 387.258" fill="#3d5daa"/>
        <polygon points="1502.402 194.702 1422.265 0 1319.758 0 1493.048 388.014 1690.789 0 1588.84 0 1502.402 194.702" fill="#3d5daa"/>
        <polygon points="1723.656 387.258 1982.709 387.258 1982.709 301.029 1816.692 301.029 1816.692 237.002 1951.51 237.002 1951.51 150.256 1816.692 150.256 1816.692 86.746 1982.709 86.746 1982.709 0.516 1723.656 0.516 1723.656 387.258" fill="#3d5daa"/>
        <polygon points="2291.898 253.009 2132.009 1.033 2038.971 1.033 2038.971 388.291 2132.009 388.291 2132.009 148.191 2284.099 388.291 2384.934 388.291 2384.934 1.033 2291.898 1.033 2291.898 253.009" fill="#3d5daa"/>
        <polygon points="2430.61 86.746 2550.943 86.746 2550.943 387.258 2643.981 387.258 2643.981 86.746 2763.758 86.746 2763.758 0.516 2430.61 0.516 2430.61 86.746" fill="#3d5daa"/>
        <path d="M3070.717,224.60962q0,25.30554-12.813,42.59839a78.94615,78.94615,0,0,1-32.31091,25.81787,106.99631,106.99631,0,0,1-42.0614,8.77759,100.84348,100.84348,0,0,1-42.06153-8.26221,78.81656,78.81656,0,0,1-32.3125-25.81689q-12.82249-17.2925-12.813-43.11475V0h-91.36609V224.60962q0,40.27441,15.33752,70.7395a151.82215,151.82215,0,0,0,40.73926,50.85986,181.62813,181.62813,0,0,0,57.46924,30.98072,215.06925,215.06925,0,0,0,131.67541,1.033,174.07152,174.07152,0,0,0,57.47791-30.4646,151.21342,151.21342,0,0,0,40.73059-51.11841q15.34-30.71375,15.34607-72.03V0H3070.717Z" fill="#3d5daa"/>
        <path d="M3476.84515,250.42749a148.66317,148.66317,0,0,0,31.19751-57.83081,161.353,161.353,0,0,0,4.17737-66.092A154.94808,154.94808,0,0,0,3489.93732,64.543q-17.54956-27.88257-48.748-45.95459Q3409.985.52136,3365.98126.51636H3217.79163V389.32373h89.69268V296.38184h6.12824l82.45123,92.94189h113.09216l-89.69268-101.20337Q3454.55981,276.24853,3476.84515,250.42749Zm-58.21771-69.9646a57.68559,57.68559,0,0,1-19.777,24.26782q-13.37218,9.561-32.86914,9.55176h-58.497V83.64771h58.497q19.49433,0,32.86914,9.55273a57.72711,57.72711,0,0,1,19.777,24.26782,80.64089,80.64089,0,0,1,0,62.99463Z" fill="#3d5daa"/>
        <polygon points="3828.935 86.746 3828.935 0.516 3569.881 0.516 3569.881 387.258 3828.935 387.258 3828.935 301.029 3662.917 301.029 3662.917 237.002 3797.735 237.002 3797.735 150.256 3662.917 150.256 3662.917 86.746 3828.935 86.746" fill="#3d5daa"/>
      </g>
    </g>
  </g>
</svg>
